<svg xmlns="http://www.w3.org/2000/svg" width="132.62" height="181.335" viewBox="0 0 132.62 181.335">
    <path style="fill:white;" id="Path_2051" data-name="Path 2051" d="M107.682,7.273l.46,1.135a2.548,2.548,0,0,0,.115-2.169c-.368.05-.368.757-.574,1.009ZM.23,134.9H.069a3.257,3.257,0,0,1,.161.858c.138.252.3.933.414.883-.368-1.312-.184-2.522-.643-2.9q.142.573.23,1.16Zm.115-26.736c.391.656.62.252.391-.706Zm3.63,4.288c0,.2.138.757,0,.656.322.757.781,1.917.459,1.715a7.332,7.332,0,0,1,.758,1.034c-.46-1.16-.643-2.27-.873-2.27-.3-.883,0-.4,0-.328.023-.429-.161-.1-.368-.832ZM1.057,99.664c.62,1.665,1.08,1.967.62.757C1.585,101.026,1.447,100.295,1.057,99.664ZM5.7,110.056c-.322-.858-.505-.555-.414-.177s.23.429.414.807C5.468,110.056,5.376,109.678,5.7,110.056Zm.23-15.134c.184-.681.574-1.337,1.034-1.059-.689-2.093,1.195.177,0-2.875.138-.177.735,1.564.85,1.261s-.184-1.16-.161-1.513c.528.832.62.252.23-.757,0,0-.23-.454-.345-.5.23.958-.368.908-.827.353.322-.177.459-1.009,1.08-.454,0,0-.161,0,0,.328,0-.126.391.58.505.454-.23-.631-.505-.832-.3-.858s.391.706.528.757c0-.933.23-1.589.85-1.009-.551-2.522,1.608,0,0-3.582.643.454,1.08.4.919-1.009,0,0,.414.883.459.757-.345-1.816,1.264.328,1.378-.58-.505-1.085-.345.454-.8-.958,1.149.757.689-1.639,1.241-1.766-.3-.631-.322-.177-.689-1.009.184,0,.276-.605.643-.252a8.459,8.459,0,0,0-.436-1.085c.62.5.391-.832.528-1.513.345.605.345,1.085.459,1.11h.276a2.935,2.935,0,0,1-.459-1.11c.6.3.758-.631,1.608.3-.6-.958,0-.3,0-.353l-.23-.5c.138-1.589,2.688.4,2.3-1.312.23.656.988,1.639.735.656s-.345-.5-.574-1.009c1.31,0,2.3-1.16,3.584-1.589v.328c.459-.631.345-1.513,1.1-1.135.23-.656,1.241-.757,1.424-.958,0,.177,0,.681.23.858-.322-1.967,0-2.093.827-2.32-.528-1.312,0-1.564.551-.252,0,.252-.276,0-.528-.4,0,.4-.23,0,.322,1.16.23,0,1.08-.151.23-1.085,1.149.656.46-1.412,1.378-.958-1.1-2.522.735-.883,0-2.27.459.58.689.328.322-.807-.689-.5-.735,0-1.264-.4.184,0,.276,0,0-.681.62.757.758.58.574-.252.574,1.185.23,0,.23,0,.459.858,0,.252.414,1.135.505.3.689-.252.551-1.261,0,0-.23,0-.459-.454.459.252,0-1.261.85.252,0,.2-.459-.177-.184.429s.6,0,.46-.883c0,0-.3.177-.3-.2s.459.252.689.353c-.505-2.144.161-1.614.322-2.522.528.933.689.555.919.555a7.207,7.207,0,0,1-.345-.807c-.322-.706-.276,0-.643-1.009.138-.177.758,0,.459-1.211.391.5,1.218.883.459-.858-.459,0-.85-.252-.758.353-.459-.883-.643.933-1.378-.681.161.4.345.883.23.883q-.573-.7-1.08-1.463c.919,1.917-.689-.757,0,.958,0,.3-.414-.656-.551-.757,0,.328.276,1.009.23,1.211-2-1.589-1.976,1.337-3.262,1.16,0-.353.414-.378,0-1.337,0,0,.138.858-.276,0,0-.3.184-.2,0-.681s0,1.16-.23.757c.184-.252-.505-1.009-.528-1.059-.115-.5.368.177,0-.958l.46,1.085-.23-.883c1.907,2.522,1.654-.5,3.056.555-.62-1.387-.115-.757.184,0a5.981,5.981,0,0,0-.482-1.74c1.057,1.715.643-.5,1.493.605-.528-1.766.988-.177,1.149-.555a1.654,1.654,0,0,0,.207.58c.23,0,.459.252.23-.454s0,.454,0,.378c-.62-2.018.62-.807.735-1.665a5.278,5.278,0,0,0,.666.681c-.276-.757,0-.656.23-.757.414.757.758,1.261.827.933.689,1.942,0,1.639-.391,1.513.689.933.505,1.261,1.011,1.816-.6-1.513.62-.807.62-1.261,0,.151-.138.177.23.883.138,0,.735.5.459-.252-.115.252-.62-.858-.3,0a7.438,7.438,0,0,1-.574-2.018c.46.807,0,.4.574,1.362a2.21,2.21,0,0,0,.23.252c-.3-.757.345-.5-.3-1.513.528.252.919-.177.23-1.766.827.353,1.608.908,1.884,0a6.5,6.5,0,0,1-.505-1.085,5.656,5.656,0,0,0,.758.958c-.459-.933.138,0-.138-.58a6.212,6.212,0,0,1-.483-.757c.138,0,.138,0,0-.378.459.807,0,.4.6,1.362l.459.429c-.345-1.059.8.5.6-.631a6.55,6.55,0,0,1-.574-1.034c.23,0,.735,1.11.965,1.185a7.945,7.945,0,0,1-.459-.757c1.149,1.816.62-.58.689-.681a1.186,1.186,0,0,0,.23.53c.459-.832,1.333-.555,1.953-.933-.138-.3-.276-.378-.276-.5.414,0,3.446,2.27,1.516-.757v-.3c0-.3,0,0-.23-.2s.574.2.827.252q-.234-.555-.414-1.135c1.264,1.69,0-1.261.689-.681-.345-.706-.276,0-.689-1.009,1.539,1.917,1.333-.3,2.3,0-.345-.681,0,.378-.574-.681.827.5,1.149-.858,2.068-.429-.551-.757,0-.429-.368-1.135-1.31-1.513-.873.252-2.114-.908-.161-.4-.758-1.337-.643-1.337,1.424,2.371,1.149.631,1.976,1.312a7.821,7.821,0,0,0-.459-1.085c1.149,1.337,1.562.631,1.608-.5.735,1.085.322-.378.919.2-.3-.353-.873-1.463-1.057-1.463.322.706.735,1.059.505,1.059-1.08-1.866-.919-.3-1.378-.933a5.283,5.283,0,0,1-.551-1.009c.551.631.3-.252.919.5-.345-.858-.414-1.816.23-.126-.689-1.589.3-.58-.23-1.892-.345.429-1.149-.656-1.516-.555-.276-1.009,0-.555.23-.757a6.564,6.564,0,0,0-.459-.757c.505-.454,1.057-.4.6-2.32a3.78,3.78,0,0,0,.46.757c-.322-1.211.413-1.009.758-1.059l.184.555c.184,0,.528,0,0-1.009.138,0,.643,1.11.735.958l-.827-2.27c.459,1.085,1.378,1.261.23-.454.161-.3.735.4.161-1.085a8.66,8.66,0,0,0,.942,1.185l2.619,4.616c-.528-.429-.85-.656,0,1.009-.459-.681-.735-.454-.459.252-1.149-1.513-.345.933-.988.832.689,1.261,0,.378.505,1.412a3.855,3.855,0,0,1,.712.3,6.5,6.5,0,0,1-.781-1.589c.459.757.6.429.345-.177.643,1.059,0,.555.345,1.135a7.86,7.86,0,0,1,1.08.782c-.689-1.513-.368-1.564.161-1.085a3.953,3.953,0,0,0-.712-1.312c.988.933,1.264.3.965-.858,1.149,1.841,0-.832.574-.3a3.3,3.3,0,0,0,.322.832c0-.252.368.378.391,0a2.674,2.674,0,0,1-.483-1.412c.3.454.368.908.574,1.009.23-.454.23-.757.919-.126-.459-.883-.873-1.589-.62-1.69a8.465,8.465,0,0,0,.62,1.009c0,.378-.6-.656-.23,0,.528.378-.23-1.387.919.2a2.273,2.273,0,0,0-.46-1.11c0,.151.528,1.009.23.858-.62-1.211-.827-1.11-1.011-1.135.23-.252-1.195-3.128,0-1.312a25.587,25.587,0,0,0-.345-3.178c-.23-.353-.322-.4-.528-.757s1.1,1.135.23-.454c-.23,0-.322.429-.827-.252A2.164,2.164,0,0,0,47.6,29.7c.161.706-.6-.958-.689-.3a13.454,13.454,0,0,0-.988-1.513c-.436-.757,0-.5-.23-1.211-.735-.58-.827-.252-.391.908.138,0,0-.429.345.126-.3,0,.643.858.345.832A5.809,5.809,0,0,0,44.732,27.2c.689,1.009-.574-.58.184.908-.23-.2-.551-.807-.735-.933.62,1.766-.115,1.917-.23,2.522a2.108,2.108,0,0,0-.391-1.11l-.23-.252c.505,1.261-.459,0,.276,1.513-.23,0-.345-.151-.184.429-.368-.555-.689-1.211-.781-.933.3.5.391.454.689,1.009-.23.252-1.378-.378-.8,1.11-2.711-3.708-.505,2.32-2.527-.353.184.328,0,.252.23.555,0-.2.184,0,.528.706-.23,0-.184.151-.23.757-.689-1.463-.3-1.438-.781-2.522-.345-.429-.391,0-.574,0-.368-.757,0-1.009,0-1.009s.459.807.505.757-.3-.757-.23-.883,1.241.706.528-.933c0,.252-.345,0-.689-.656.988.252.965-.757,1.838-1.009-.138-.252-.23-.3-.322-.5.6.454.345-.681,1.287.328-.23-.353-.322-.4-.528-.757a4.187,4.187,0,0,1,1.034.807c-.459-.58-.345-.933-.689-1.639.3.555.459.807.551.706s-.391-.605-.391-.807a2.909,2.909,0,0,1,1.172.731c-.23-.5-.689-.757-.8-1.261,1.011,1.211.62-1.009.735-1.387,0,.353.574.757.3.151.414.631.3.908.551,1.059-.528-1.009.161-.454,0-.958-.459-.958-.23,0-.551-.706a4.9,4.9,0,0,1-.184-1.589c-.988-.933-.574,1.513-2.183-.151-.322-.631.276,0,.368,0-.919-1.715,0-.252-.184-.908-1.287-2.018-.345.378-.919-.177l-.23-.555a2.211,2.211,0,0,0-.23-.252c-.069-.05,0,1.513-.85,0-.115.252.689,2.068.23,1.564a6.683,6.683,0,0,0-.827-2.522c-.23-.353-.368,0-.459-.429.758.681.781.5,1.1.4.23.429-.23,0,.276.858,0,0,.459,0,0-.681-.345-.353-.689-1.387-.345-.807a2.53,2.53,0,0,0,.643.984c-.23-.378,0-.3,0-.353l-.551-1.009c-.115-.252.368.2.574.353-.322-1.69,1.953.681,1.976-.4l-.184-.252c.689,1.059.46,0,.919.858,0-.252-.138-.832,0-.429s-.184,0,.115.631a1.661,1.661,0,0,0,.368.479c-.3-.757,0-.429.23-.151l-.322-.807c.459.252.505,0,.919.177l-.459-.757c.23.2.368.151.138-.429a6.811,6.811,0,0,1-1.034-1.085c.46.3.574-.151,1.287.958,0,.177-.6-.656-.23,0a3.948,3.948,0,0,1,.919.807c-.23-.454-.3-.605-.161-.58a6.328,6.328,0,0,1-.9-1.866c.574.933.459,1.009.919,1.841,0-.328.276.378.414.454s-.276-1.085-.161-1.261a17.839,17.839,0,0,0-1.172-1.387c.138-.252.827.832,1.057.757-.368-.631-.551-.757-.551-1.009,1.149,1.438,1.516.5,2,.555.3.656-.414-.378,0,.353s.276.252.459.429a7.486,7.486,0,0,0-.735-1.614c.8.757.643-.2,1.218,0-.184-.4-.988-1.967-.345-1.185a1.833,1.833,0,0,0,.184.58c.184.429.528,0,.919-.177-.988-1.816-.459-1.942-.781-2.976.345.3.3.656.505.757-.184-1.564.23-1.639.689-2.774-.62-.177.161-.555-.459-1.085.574.4,1.264.5,1.149,0-.23-.126.6,1.261.574,1.009s-.505-.958,0-.656c-.551-.908-.8-1.463-.689-1.639s.551,1.009.689.958V5.684a1.711,1.711,0,0,1-.62-.656c.3,0-.23-.58-.391-.807a2.233,2.233,0,0,0,0-1.337A18.318,18.318,0,0,0,49.74,5.71c-.138.252.459,1.261.758,1.967,1.057-.429,1.677-2.144,1.539-4.666A6.214,6.214,0,0,1,50.82.489C53.944,5.155,52.2-1.277,54.266.236a32.525,32.525,0,0,1,1.585,3.178c.459-.58,1.332.706,2.068,1.513.689.2.758-.151,1.424,0-.161-.328-.3-.631-.115-.605s0,.58.6,1.337c.62,0,2.022,2.346,2.3,1.513a11.566,11.566,0,0,0,1.562,2.85c-.184-.328,0-.454.23,0s.23.378.3.177c-.391-.328-.6-2.22,0-1.059a3.213,3.213,0,0,0,.643,2.7c-.368,0-.3.454,0,1.059a9.619,9.619,0,0,0,.85.883,13.923,13.923,0,0,1,.345,1.488c.781.605,2.022.908,1.516-1.16.459.177,1.976,2.32,1.333.3a2.879,2.879,0,0,1-1.126-1.085c.3-.177,1.516,1.261,1.08-.252-1.516-1.412-3.056-1.841-3.676-.757-.161-1.766,1.539-1.211,2.849-.5,0-.757.965-.908,1.838-.252.115-.3-.23-1.009,0-1.312.689-.252,3.308,1.564,1.838-1.589.115-.555.46.908.62.706a2.114,2.114,0,0,0-.345-1.513C70,5.886,68.212,5.18,66.236,3.465A5.927,5.927,0,0,0,65.707.716c1.953-1.11,5.7,5.045,7.719,3.783.827,2.7,2.16,3.405,2.711,5.953H76.6A17.839,17.839,0,0,0,79.01,15.5c.23.454-.161.252,0,.656.3-.126.689,1.009,1.057,1.513s-.322.2-.115.706L85.236,34.64c0,1.589.85,4.187.919,5.8.689,1.009.735,2.522,1.493,3.582-.184,0-.23.2,0,.681,0-.151.3,0,.528.4-.459,0,.459,1.312.459,1.412.781,2.169,1.057,4.137,2.068,6.608,1.149.631.161-3.178,1.424-2.018a5.759,5.759,0,0,0-.414-2.774c-.23,0-.505,0-.919-.883,0-1.261,0-2.522.689-2.951-.965-2.522.3-2.169.551-3.178-.23-.555-.345-.252-.6-1.059.988,0,1.746-.933,2.3-2.27-.919-3.38,1.195-3.455,0-6.76a2.382,2.382,0,0,0,.436-2.093,23.655,23.655,0,0,1-1.861-4.086c-.345-1.614.459-1.816.505-3.077.391,1.009,1.287,1.766,1.333.757-.23-.5-.505-.5-.758-1.009-.23-1.841-.758-3.228-1.034-5.045.368,0,.988.177.62-1.185-.23,0-.138,1.009-.505.177.322-.151,0-1.16.23-1.337.643,1.892.46,0,.62-.252.505.5.414,1.412.919,2.22,1.31-.252.689-6.053,2.3-3.632,0,.454-.391.429-.689.5a44.171,44.171,0,0,1-.643,6.835,5.454,5.454,0,0,1,.459,1.11c-.391,0-.758-.58-1.149-.5,0,.605,0,1.185-.391,1.085.827,1.16.115,1.337.459,2.371.46.3.46.454.758,1.639.23,0,.391.757.574.429.6-.958,1.264-2.27,2.412-2.7.161,2.068-.689,2.7-.919,4.086a12.918,12.918,0,0,1,.965,5.372c-.161.454-.368-.883-.551-.429a47.39,47.39,0,0,0,2.045,8.8c.919-.555,2.068,2.774,2.941,2.144a20.142,20.142,0,0,0,1.218,2.522,5.107,5.107,0,0,1,.115,1.211,3.748,3.748,0,0,0,.85,1.312c1.424,3.708.184,3.128,1.08,5.953.85.5,1.654-.177,2.527,1.11a5.419,5.419,0,0,0,.735,2.926c-.115,1.009.551,3.329.414,4.237-1.08-1.261-2.068-4.49-3.308-5.549,1.057,4.691-1.011,4.717-1.264,5.852a1.6,1.6,0,0,0,.138-.3c-.391,0-.345.429-.414.807-.391-1.135-.459-.353-.8-1.009a2.374,2.374,0,0,0-.23-1.185c-.965.5-2.16-.933-3.308-.908a4,4,0,0,0-.414-.807c-1.264.832-2.688,0-4.181,0-.138-.3-.322-.757-.414-.757a1.2,1.2,0,0,1-.505.883,1.177,1.177,0,0,0-.184-.555c-.735.883-2.688,0-.919,4.086,0-.353,0-.353.3.177a4.776,4.776,0,0,0,.9,2.522c-.46-.177.138,1.513.689,2.27a7.954,7.954,0,0,0,.46,1.11c0,.3,0,.252-.345-.177.184.378.23.605.345.832s.161,0,.414.454c-.459,0,.528,1.261.689,1.967-.276,0-.965-1.589-1.1-1.11a11.588,11.588,0,0,1,.942,1.866s-.138-.757.23,0c-.115,0,.414,1.009.505,1.387s-.184,0-.345-.151c.689.858-.276,0,.505,1.412,0-.883.528-.58,1.149-.252-.758-1.841.23-1.513-.528-3.38a1.454,1.454,0,0,1-.414-.454,10.146,10.146,0,0,0-.437-1.438c.781,0-1.218-4.288-.689-5.045.689,1.438.988,1.362,1.08.807.62,1.337.643.908.758.605,1.034,2.522,1.792,2.522,2.527,4.742,0-.378,0-.429.345.177s-.3,0,.161.908c.184.4.23.2.345.177,1.241,2.875.551,2.976,1.241,5.045,1.493,1.185.115-2.951,1.149-2.522l-.459-1.085c.23-1.261,2.16,3.279,2.458,2.522a10.673,10.673,0,0,0,2.573,3.153c0,.378.643.706,1.011,1.513.827-.3,2.068,5.221,2.895,6.861a26.737,26.737,0,0,0,.942,3.481c.161,0,.322.454.368.807h.184a14.088,14.088,0,0,1,1.057,2.775c-.735-.656-.62.681.23,3.1,0,0,.322.706.345.5.551,1.261,0,.757.459,1.715,0-.5-.735-2.522-.689-3.2.3.757.345.681.6,1.362l-.23-.252a13.386,13.386,0,0,1,.6,1.69c-.184,0,0,.5,0,.933-.23-.5-.6-.858-.368-.177.184-.2.23.757.574,1.059-.138.5,0,1.312-.115,1.312a8.182,8.182,0,0,1,1.149,2.093c-.161-.151.184.605.23.858-.23.757.827,3.531.574,4.288.8,1.412.689.4,1.241.757q.728,1.3,1.333,2.674c-.459,0,0,2.22-1.011.706.551,1.766-1.149-.58-1.264.2,0,.252-.46.378-1.424-1.312-.459.378-1.378-.252-2.114,0,.3.706.689,1.085.505,1.085-.919-1.261-.919-.2-1.516-.908.528-.5.827-1.412,1.447-1.69-.184-.378-.161-.5-.345-.832,0,.757-2.665-2.9-1.539-.908-.23-.3.161.807,0,.706-1.31-2.27-.391.252-.781,0-.368-.706-.276,0-.689-1.009a10.775,10.775,0,0,0-.689-1.665c-1.218-1.69-.827-.3-1.31-.3a4.073,4.073,0,0,0,.414.782c-.23-.151-.8-.555,0,.706.459.4,0-.126,0-.353a4.724,4.724,0,0,1,.85,1.866,23.1,23.1,0,0,0,1.424,1.942v.605c0,.353.46.5.85,1.211-.3-.252-.391,0-.23.807-.735-1.387-.735-.757-.735-.631.459.706.62.757.551.378.574,1.211.345.252.827,1.261,0,.5-2.137-2.522-1.057,0,.115-.605.988.807,1.47,1.261,2,3.38.988,2.522,1.379,3.91-.528-.151-.23,1.589-.965.858,0-.378.46,0-.276-1.513s0,.757-.574-.378c0-.429.391,0-.115-.933a4.292,4.292,0,0,0-.368-.5,5.352,5.352,0,0,0,.689,1.993c-.459-.832.23.706-.276-.2a9.968,9.968,0,0,0-.62-1.337c.23,0,.138-.5-.368-1.513-1.057-1.185-.459.4-1.608-1.135.276.605.3,1.211,0,.757a1.749,1.749,0,0,0-.345-.832c0,1.463-.46,1.513-.827,2.144.6.681.46.252.873.5a5.768,5.768,0,0,0,.483,1.438,6.88,6.88,0,0,1,1.264,1.665c.345,0,1.034.908.919.151.551,1.16,0,.681-.276.5a2.937,2.937,0,0,1,.253.555,28.61,28.61,0,0,1,2.5,4.237c1.608.858.528-2.522,2.183-1.513.138-.4-.368-1.967.23-1.766-.368-.605-.23-.605-.689-1.312.689.454.528-.5.3-1.513.988,1.766,0-.706.551,0a4.286,4.286,0,0,0-.413-.807c1.149,1.513-.46-1.892.368-1.16,0,.252.873,1.387.551,1.387-.368-.58-.459-1.009-.551-1.059.827,1.614.368,1.412.988,2.825-.965-1.362-.414.126-.689.3.23.5,1.034,2.169.505,1.412.23,0-.505-.908-.735-1.261-.23,0,0,1.009,0,1.337.735,1.185.505.757.505.4l.85,1.564c0,.429-.459-.378-.689-.656.988,1.715,0,.883.322,1.841-.3-.58-.46-.807-.551-.757a3.94,3.94,0,0,1,.437.782c-.758.353-1.884-.151-2.3.858-.689-.706-1.838-1.059-.322,1.513,0,1.841-1.654,1.261-2.3,2.522-1.08-1.059-1.378-.5-1.378.126,0,0-.459-.5-.345-.126.414,1.412,1.31,1.69,1.562,1.513-.3,0,.965,1.69,1.378,2.27.919.353,1.31,0,2.114.5,0-.151-.3-.832-.184-.908.758.908.115-.706.459-.605s.919,1.135,1.08,1.085-.322-1.185-.184-1.261.459.353.528.378-.322-.5-.345-.5.6.631.735.631q-.188-.415-.414-.807c0-.5.85.757,1.08.757-.3-.807-.8-1.085-.689-1.261.505.858.6.605.965,1.135-.689-1.513.528,0-.322-1.513.528.3,1.31.706,1.516.5a3.255,3.255,0,0,0,.391.782c.276-.177.368-.2.8.252a5.555,5.555,0,0,0-.322-.5c.528,0,.919,0,.988-.5l.689,1.009c-.3-.757-.115-.454.3.177-.184-.5-.781-1.564-.414-1.11a1.45,1.45,0,0,0,.758.933,11.756,11.756,0,0,0-.505-1.085c-.3-.605-.23-.252-.505-.757.23,0,.689.757,1.333,2.018.161.454,0,.5.138.908-.873-1.438-.735-.353-.505.252a4.336,4.336,0,0,0,.345.5,7.617,7.617,0,0,1-.391-.782c1.08,1.513.781.5.919.2a20,20,0,0,0,1.057,1.791,1.093,1.093,0,0,0-.758.353c-.161-.555-.505-.706-.689-.958.138.4.368,1.261.115.908a3.257,3.257,0,0,0-.391-.782c.505,1.211,0,.832,0,1.312.161-.252.391.429.689.631s.138.807-.459,0l.414.757c-.8-.681-.368,1.261-1.287.656a4.494,4.494,0,0,1,.391.807c-.919-.757-.551,1.337-1.378.4.528.958.919,1.261.689.631.988,1.766,0,.5-.23.429l.3.5c-.322-.2-1.034-1.312-1.287-1.337s.391,1.362-.161,1.11c-.6-1.261-.345,0-.85-.5.368-.378-1.218-.908-.23.807,0-.151.459.5.689.631-.3,0,0,.328.551,1.362-.345-.151,0,.555,0,.706-.459-.832-.23-.832-.459-1.412a.356.356,0,0,1-.276-.177c0,.353.758,1.69,0,.656a8.449,8.449,0,0,1,.528,1.059c1.057.177,1.516.454,1.608-.908.85.555.276-1.312,1.424,0-.276-.5,0-.252-.322-.832.919.5,0-2.522,1.378-.757,0,0-.368,0,0,.631,0,0,1.057.5,0-1.261.161.126.368.3.414.126.689,1.059-.161,0,.23.858.23,0,.85.353.23-1.11.643-.252,1.241,0,.827-1.715.758,1.337-.23-.631-.138-.58s.643,1.261.689,1.261.161.2.23.252-.23-.681-.23-.858c.414.706.459.4.551.4-1.011-2.018-.161-.832,0-.933.322-.5.322-1.564.735-1.589.138.858-.276.252.138,1.513-.8-.958-.46.757-.919.706l.643,1.337c.23.5.322.353.551.757s-.965-.883-.3.757c-.459-.858-.3-.328-.322-.177-1.034-1.766-1.47-1.412-1.447-.958s.3,0,.46.454c0,0-.23,0,.23.858.138,0,0-.4.322.177s-.345,0,.62,1.665c0,.252-.505-1.009-.689-1.009s.138.3,0,.252a9.6,9.6,0,0,0,1.08,1.766c.23.757-.345-.3-.574-.681.276.757.62.933.85,1.513s0,.681,0,.681a1.969,1.969,0,0,0-.207-.53c0,.177-.574-.706-.184,0l.23.2c.23.807-.46.328.115,1.614-.276-.3-.391-.807-.62-1.009s.345,1.009.276,1.185a10.79,10.79,0,0,0-.758-1.261c0,.177-.551-.252.138.933.138.177.391,0,.46.429-.46-.4-.3.252-1.011-.807,0,.4.8,1.362.758,1.614-.138-.126-.574-1.009-.689-1.009.23.5.459,1.816,0,.656,0,.328,0,.3-.276.5a8.209,8.209,0,0,0-.62-1.009c0,1.261-1.379.5-1.608,1.513-.276-.429-.322-.681-.459-.757,0,.5,0,1.009-.735,0a6.221,6.221,0,0,0,.482.757c-.459-.378-.368.353-.3.832.689.958.459,0,1.447,1.564-.414,0-1.769-2.018-1.838-1.312-.414-.555-.459-1.009-.6-1.009s0,.252-.459,0a3.042,3.042,0,0,1,.505,1.412c-.919-.757-.276,1.211-1.539,0a2.236,2.236,0,0,1-1.286,1.236,1.989,1.989,0,0,1-1.7-.177c.322.656-.138.454.459,1.438-.85-.757-.115.933-.988,0a1.833,1.833,0,0,0-.184-.58c-.184-.429-.23,0-.528,0,.23.4.505.883.345.832-1.149-1.564-.62.328-.689.757a3.1,3.1,0,0,1-.345-.832c-.276,0-.758,0,0,1.387.3.2-.459-1.211,0-.4a6.489,6.489,0,0,0,.322.832c-1.379-1.135-1.93-.177-2.3.252s-.689-.681-.689-.631.391,1.387-.138,1.11h-.23c-.23,0-.919-.2-.459.933.345.681.62.126.689.631-.23,0-.459-.252-.414.252-.689-1.362-.873-.933-.689-.3a2.643,2.643,0,0,1,1.195,1.009c-.551-.252-1.792-1.009-.459,1.312-.138-.252-.276-.252,0,0,.574.5.8,1.135,1.333,1.639-1.93-1.841-.46,2.144-2.872-.757.23.5.368.5.62,1.009-.161.126-.6-.757-.689-.3.276.5.23.605.505,1.059a.728.728,0,0,1-.666-.3c.322,0,.115-.631-.322-1.513-.138.605-.965-.5-.574,1.009,0-.378.574.681.689.3.276.656.873,1.665.62,1.69-.23-.378-.505-1.009-.62-1.009a1.536,1.536,0,0,1,0,2.093c-.6-.933-.276-.807-.735-1.614,0,.328,0,.4-.184.429a6.105,6.105,0,0,1,.9,1.539c0,.328-.551-.807-.643-.656.551,1.009,0,.681.391,1.463-.689-.757-.391,0,0,.681-.6-.605-.551-.3-1.149-1.059.184.58.184.328.551,1.009-.368-.126-.3,0-.23.5l-.781-.933c.184.605-.138.3.368.832-.322.858-2.114-2.018-2.068-1.261-1.057-1.892-.919-1.009-.758-.252-.391-.555-.391-1.059-.574-1.059.161.681,0,.656-.345.5a9.81,9.81,0,0,0,.8,1.261c-.345-.378-.23.2-.459,0a2.7,2.7,0,0,0-.253-.858c-.115,0-.391-.378-.459,0l.414.807c-1.218-1.185-1.149.454-2-.605-.276-.151.23.757.23.883a8.233,8.233,0,0,1-.368-.807c-.459-.5,0,1.841-.414.252-.23.252.23,1.337-.23.807,0-.151-.23-.757-.414-.807.3.353.46.807.322.858a1.984,1.984,0,0,0-.689-.631c.528.631,0,.605-.184.429s0,0,0-.328-.758-.429-.505.252c.23.328.23,0,.505.4s-.459-.252-.689-.3c.735,1.614-1.149-.883-.184,1.11,0-1.261,1.953,1.967,1.149-.252.781,1.463.46.5.965.807.391.858.46.58.689,1.009-.138.353-.3-.2-.459-.4,0,.3-.161.2.23.883,0,0,.138-.126.322.177-.345,0-.3.3,0,1.009-.6-.454-.414.4-1.218.3-.345-.4-.368-.832-.689-1.009,0,1.589-1.93-.378-2.16.5-.528-.757-.689-1.564-.988-1.513a4.633,4.633,0,0,0,.758,1.614c-1.034-.757-.528,1.009-1.218,1.009-1.378-2.119-.988.429-2.3-1.185.459.252.781,0,.459-.883-.689-.858-1.47-.832-.459.933-.781-.807,0,1.362-.919-.2.781,1.715.138,1.967-.46,1.589v.378c-.8.177-1.493,1.009-2.8,0,.23.429.459.933.3.858-.368-.681-.689-1.362-.827-1.261.23.58.574.757.345.807-.276-.4-.574-.681-.414-.126-.322-.3-.23-.681-.459-.757s0,.252,0,.631.23.151.505.757c-.46-.5-.414-.252-.873-.555-.459-.908.184,0-.322-1.185-2.826-2.775-3.745-1.11-5.215-1.009.276.706.551.252.551.706-.873-.454-1.378-1.211-1.149.252-.23,0-.689-.832-.988-1.185.138.757-1.31-.807-.689,1.009-.505-.958-.23.252-.781-.605.459,1.009.276.807,0,.353.735,1.513,0,.5.276,1.513-.528-.858-.574-.58-.551,0-.322-.328-.23-.681-.459-.757,0,.757-1.011-.429-.276,1.463-.758-1.16-1.287-.4-.919.757-.781-1.513-1.241-.883-.919-.2a12.7,12.7,0,0,0-1.562-1.564l.62,1.009c-.85.757-2.3-.378-2.987,1.438a1.794,1.794,0,0,0-.483-.731c.6,2.194-2-1.059-.459,2.194-.23.126-.459-.933-.827-1.261-.459.58-1.379,0-1.149,1.211-.689-.58-.689-.252-1.424-.656.276.631.3.252.551.757-.6,0-1.195-.5-.919,1.085-.574-1.261-.689-.757-1.195-1.715.23-.252.6-.454,0-2.018-.46-.429.138,1.135-.3.454-.322-2.018.919-.151,1.447-.681a7.725,7.725,0,0,0-.437-.782c0-.58.528,0,.919.252.184-2.22,2.872.252,2.826-2.32.919,1.059,1.424.656,2.022.656-.689-1.211-.758,0-1.447-1.261.23-.151,1.7.126.643-1.639.345.706.735,1.589.919,1.564s-.161-.605,0-.656c.8,1.463,1.287.2,1.539,0s0,.252.23.555c-.161-.555.919.757.643-.3,0,.126-.23,0-.46-.429-.23-1.085.689,1.009.8.605-.276-.631-.3-.252-.528-.757.62.126,1.149-.858,1.769-.555.46.832,0,.3.414,1.135,0-.2.459.177.138-.4s-.3-.4-.459-.757c.735-.555,1.792-.429,2.619-1.261-.46-1.261.919,0,1.057-.5s1.149-.2,1.838-.252c1.034,0,1.47-1.412,2.849-.429-.23-.429-.46-.933-.276-.858a5.671,5.671,0,0,0,.574,1.034c.161-.3,0-.933-.23-1.866a10.6,10.6,0,0,0,.873,1.211c0,.126-.643-.605-.322.177.161,0,.459.706.528.378-.62-1.766-.184-.631,0-1.261a1.254,1.254,0,0,1-.414-.429c.689.706.3-.933.988-.177,0,.58-.276.353-.184,1.085.368,0,.345-.151.85.252-.23-.5-.6-.757-.528-1.059.8,1.009-.23-2.119.735-1.009-.23-.177,0,.555,0,.605v-.681c1.149,1.715.689,0,1.378.631a4.923,4.923,0,0,0-.368-1.135c.528.832,1.149.832,1.241.681-.414-.832-.345,0-.689-.656.643,0,1.287.757,1.792,1.085.161,0-.345-.757-.23-.858.505,1.185,1.034,1.211,1.378,1.261l-.873-1.564c0,.353-.184.252-.459,0a6.418,6.418,0,0,1-.965-1.513.966.966,0,0,0,.345.832c-.689-.4-.827.5-1.539.126.161.328.391.555.391.807-.391-1.009-.23,0-.551-.706a2.215,2.215,0,0,0-.9-1.211c.23.353.391.605.345.807-.919-1.564-.3.378-.919-.5,0,.429.528.757.3.832l-.551-1.059a4.228,4.228,0,0,0-1.034.2c0,.2-.505-1.387-.643-1.009.643,1.16-.827-.252,0,1.639-.919-.605-.505.757-1.516-.252.184.454.115,1.059-.23.454.184.151,0-.631-.161-.58-.184,1.589-1.608,1.387-2.114,2.522a1.785,1.785,0,0,0-.161-.58h-.23a5.409,5.409,0,0,0,.459.782c-.505-.58,0,1.261-.322.832,0-.4-.23-.252-.115,0a2.459,2.459,0,0,0-.689-1.009s.23,0,0-.378c-.988-.858-1.057.681-1.47,1.059-.391-.4-.23-1.009-.643-1.337.3,1.059-1.057-1.059-.459.252.368.656.758.177,1.1,1.438-.6-.58-1.608-2.194-1.379-.958-1.241-2.648-1.378-1.11-2.3-2.27.138.605.161,1.564-.459.883.23-.5.276-1.261-.322-2.825,0,0,0,.126-.276-.177s.758,1.085.85.555c.505,1.009,0,.555.345,1.513.459,0,.919,0,.988-.807,0,.328-.505-.832-.62-.681s0,.908-.184.4c-.758-1.362-1.838-2.018-1.516-.555-.919-1.463-.46.252-.528.252s-.528-.958-.62-1.009c.6,1.211,0,1.135-.391-.151-.23,0,0,.757.23,1.211a16.1,16.1,0,0,1-1.379-1.639c.322.656.505.757.46,1.085-.3-.3-.3-.5-.505-.757a2.461,2.461,0,0,0,.207.58c-1.1-1.841-.184,1.211-.735.353a2.319,2.319,0,0,0-.138-.58c-.184.252-.459.378,0,1.337-.689-1.16,0,.5-.23.454-.919-1.766-1.907-1.513-1.149,0-.459-.58-1.011-1.362-.781-.3-.735-1.362.23-.5,0-1.261s-.528.353-.988-.177a11.2,11.2,0,0,0,.8,2.245c-.23-.126-.62-.908-.919-1.261s.161,0,0-.328c-.643-.908-.85-.252,0,1.337,0-.3.758,1.135.62,1.009-.62-1.11-.85-.706-1.424-1.639,0-.5.551.706.643.378a8.575,8.575,0,0,1-.666-1.665c-.23.3-.46.3-.8,0,.23.5.3.252.6,1.009,0,.378-.528-.858-.689-1.009a2.727,2.727,0,0,0,.253,1.211c-1.149-1.261-1.08-.328-1.746-.177-.643-1.135.3-.151,0-.933-1.287-1.185-1.746-.605-2.918-1.589.184.378.3.4.459.757-.919-1.059-.459.4-1.149-.757-.138,1.639-2.3,1.463-2.3,3.329-.414.151-1.723-1.261-1.08.832-.689-1.009-.689.4-1.264-.4a3.382,3.382,0,0,0-.3-.5c-.322,1.513-1.884-.832-2.458.454-.6-1.387.85,0-.161-1.866.459-.429.161-1.412.689-1.614,0,0-.138,0-.3-.2s0,0,0-.3c-.184.252-.459,0-.85-.605.46,0,1.08,0,.919-1.085-.643-1.16-.689.5-1.08-.177,0-.631,0-1.412.368-1.766-.551-.757.115-.177-.391-1.135-.528-.58-.368,0-.643,0,0,0-.161-.858-.3-.832,0,.429-.161,0-.368.151.161.378.574.757.551,1.059-.528-.58-1.447-1.614-.988-.2l-.46-1.11c-.115,0-.23.151-.459,0l.368.807a5.838,5.838,0,0,1-1.47-1.614c0,.328-.459,1.16-1.011,0,0-.5,1.08.656.459-1.185.758-.2,1.31-1.135,1.953-.883s.459-.757.8-.706,1.034.605.528-.883c0,.631-.551-.3-.391.5-.3-.328-.23-.681-.414-.757-1.746,2.9-7.03-1.362-9.351.908-1.057-2.522-1.424-1.135-1.378-.378-.8-1.438-.391.353-.988-.858-.161-.656.505-.177,0-1.312a9.016,9.016,0,0,0-.781-1.614c-.827-.252-.184,2.194-1.034,1.11.345,0-.322-2.27.23-2.371l-.6-1.362c.781,1.892.368.2.965,1.211.138-.151-.138-.908-.459-1.766s-.965-.681-1.608-1.589-.505-1.665-.115-1.261c-.184-2.522,2.3-.5,2.8-1.564,0,0-.276-.757,0-.631.574,0,1.976,1.261,1.493-1.009.528.328.62,0,.919-.4q.505,1.059.689.681c-.345-.5-.161-.328-.505-1.085a.77.77,0,0,1-.6-.378c0-.4.276-.126-.276-1.186-.345.177-.988-.958-1.378-1.009,0-.151-.23-.807,0-.656.919,1.463,1.378,1.085,2.458,3.153a6.484,6.484,0,0,0-.758-1.942c-.276-1.589.919-.5.85-1.69a7.412,7.412,0,0,0-.988-1.513c.3-.328-.368-.706-.689-1.337.689.757,1.057.378,1.608.58,1.011-4.364,5.4-2.522,7.007-5.171a8.785,8.785,0,0,0,2.458.151c.85,1.085,1.746,1.438,1.654.5.459.631,1.218.252,1.516.252-.3.177-.161-.353-.345-.807-.459,0-.528.681-1.287-.706a2.211,2.211,0,0,0,0,.605s.115,0,.23.252-.758-1.766-1.1-1.766c.643,1.412-.46,0,.459,1.766.23,0,0-.757.368.151a1.272,1.272,0,0,1-1.333,0c-.3-1.009.689,0,.735-.353s-.414-1.009-.551-1.387c0-.757.62,0,.138-1.362-1.1-.58-.115,1.135-.6,1.261,0,0,0-.252-.138-.252s-.345.429-.873,0c0,.429.551,2.27-.459.2.3.151.574,0,.115-1.009.161-.706,1.378,1.261,1.195,0-.276,0-.62-.328-1.1-1.135.138-.252.689,1.009.781.605s-.3-.4-.459-.757c.459.4,1.149.656.62-.605a15.721,15.721,0,0,1-1.608-.555c.184.353.46,1.009.23.555l-.23-.5c-.115-1.387,1.149.757.551-1.261-.138.252-.758-.5-.6.252-.781-1.412-1.378-1.438-1.47-.933-.23-2.27,1.838.757,2.6.757-.414-1.009-.8-.807-1.057-1.816,1.424,1.261,1.149-1.665,1.838-1.866-1.034-.656-1.746-.832-1.953,0,0,.151-.23-.832-.459-.757,0,1.185-1.149.681-2.068.328a3.239,3.239,0,0,1,.391.807c-1.218-1.816-1.057,0-1.677-.5v-.3c-.459.958-1.378,1.438-2.757.3l.505,1.085c-1.241-.681-2.895-1.337-3.1.454-.276-.605-.46-.858-.528-.757-1.792,1.715-5.514,0-7.053,1.866,0,0,.184,0,0-.605-.23,1.917-1.31,1.639-2.183,1.942a17.437,17.437,0,0,0,.459,1.766c-.528-1.185-.23-.656-.735-1.942.138,1.362-.414,1.513-1.1,1.11l.368.807c-.781-.908-1.333-1.085-1.218,0a8.008,8.008,0,0,0-.322-.858c-.184-.4-.62-.151-.23.757-.23-.177-.345,0,0,1.009-.3-.151-.574-1.312-.827-1.589a8.255,8.255,0,0,1-6.364,3.027,7.58,7.58,0,0,1,5.123-2.144c-.345-.757.46.177-.115-.933,1.378.5,1.608-2.27,3.079-1.337a2.8,2.8,0,0,1-.3-.832,2.678,2.678,0,0,0,.781,1.286c-.459-1.261.459-.2,0-1.665.6,1.16.643-.328.643-.605.23.328.505,1.009.643,1.009-.414-1.009.3,0,0-.958.689,1.135.62.252,1.011.5-.689-1.665,0-.933.23-1.059.3.328.23.681.414.757.919-1.261,2.435-1.11,3.308-2.774l-.23-.252c-.23-.252.459.706.459.429-.345-.757-.161-.58-.505-1.085.459.454.505-.3.689-.605.459.807.23.681.391,1.11,0-.151.345.454.368.151s-.276-.252-.574-1.009c0-.454.574.832.62.378-.62-1.261.115-.4-.115-1.261a8.13,8.13,0,0,1,.85,1.589c0-.328,0-.555.414,0l-.368-.807c.23.2,1.08,1.059.528-.252,0,.429-.919-.908-.689.328-.988-2.22,1.149,0,.368-2.144-1.241.177-1.838,1.009-2.895,1.639-.23-.454-.23-.757-.368-.807s-.459-.2-.161.4,0-.757.459.429a.808.808,0,0,1-.942,0,2.135,2.135,0,0,0-.482-1.413c-.276,1.665-1.723,1.261-2.412,1.766a25.647,25.647,0,0,0-2.849,2.875l.23.5c-1.011-1.059-.574,1.009-1.608-.252a2.721,2.721,0,0,0,.322,1.488c-.161-.126-.138.454-.414-.151.23,0,.184-.5-.23-1.513a1.416,1.416,0,0,0-1.08,1.11c-.919-.807-1.218.378-2.068-.4,0-.933,1.378.605.23-2.068,0,.757-1.08-1.009-.988,0-.414-.933-.505-.883-.528-.4-1.195-2.093-.965.454-1.976-.807a4.576,4.576,0,0,1,.161,1.564c-.414-.883,0-.454-.414-1.11,0-.2.414.2.161-.4a17.629,17.629,0,0,0-3.308-.227c-1.1-2.522-.735-.252-1.149-.807-.322-1.362-.505,0-.689,0a5.873,5.873,0,0,1-1.746-.883c-.322-1.387.689.3.689-.58a5.357,5.357,0,0,0-.735-1.312c.161.5-.322.151-.643-.706.414.252.368-.252.391-.807-.62-.681-1.7-2.22-1.31-.429-.735-1.135-.827-.429-1.424-.706-.551-1.513-.827-.883-1.149-.807-.758-1.16-.8-1.866-1.31-2.018-.115-.605.345.2.161-.4-.643-1.261-1.287-2.522-1.562-2.27.184.378.276.429.459.757a2.6,2.6,0,0,1-1.149-1.135c0,.757-.23,0-.46-.151s-.322,1.009-1.1-.5c0-.706.6.252,0-1.312-.505-.656,0,.883-.459,0s.758,0,.161-1.337h-.3c-.345-.832,0-.883-.6-1.69.138.126.115-.4.368.177-.138,0,0,.3.23.883.115,0,.3-.3.459-.5-1.057-1.513-1.838-1.135-2.114-.757a10.159,10.159,0,0,0-.712-1.312c.23-.126.414-.252.414.5.23,0,0-.681-.184-1.261-.919-1.16,0,.454-.551.252a2.033,2.033,0,0,0-.459-1.412Zm68.235,84.319c.459.933.345.252.276-.126S74.116,179.065,74.162,179.242Zm9.19-2.4.873.58a4.923,4.923,0,0,1-.437-.782c-.138.126-.322,0-.6-.378-.023,0,.23.555.161.58Zm24.767-2.648a2.139,2.139,0,0,1-.3-.858c-.3-.555-.459-.5-.551-.378.391.5.23.5.62,1.009,0,.151-.528-.2,0,.656-.115-.4.115-.378.23-.454Zm8.73-53.775c.368.656-.138-.4.138,0l-.414-.757c-.138,0,0,.252,0,.328s.3.378.276.454ZM68.993,16.757c.115-.681,1.333.555.8-.757C69.384,15.7,68.35,15.345,68.993,16.757ZM32.233,57.719c.368.177.62.177.689-.328C32.325,56.987,32.233,57.315,32.233,57.719ZM7.191,96.259c.23.5.276.252.574,1.059.23,0,0-.58.23-.429-.138-.3-.184-.177-.23-.2a1.219,1.219,0,0,1-.184-.58c-.322-.555-.459,0-.391.252Zm5.973,8.5c.276.5.459.5.574.4a2.651,2.651,0,0,0-.758-.984,3.572,3.572,0,0,1,.138.706Zm6.019,7.188c.3.605,1.034,1.185.459-.177-.138.5-.276.177-.459.3Zm-6.5-29.435c0,.5.919,1.009.322,0C12.981,82.487,12.889,82.765,12.682,82.513Zm.6-1.866c.23.58.459.429.459.757s.758.5.3-.454c-.23.328-.459-.151-.758-.328Zm49.855,84.7c.368.807.62.5.528,0C63.134,164.461,63.2,165.243,63.134,165.344ZM42.687,115.5c.505,1.16.3.151.414.151C42.756,114.9,42.572,115.1,42.687,115.5Zm6.042-1.766c-.459-1.085-.345,0-.689-.681s.184,0,.115-.378c1.792,2.522,1.838.177,2.642,0s1.746.883,2,.353a2.362,2.362,0,0,0-.276-.832c.528.656.276-.353.574-.252-.345-.908-.368-.656,0-.631a9.55,9.55,0,0,1-.643-1.337c-.23,0,.184.58.23.858a10.315,10.315,0,0,1-.85-1.236c0,.252.3.858.322,1.16s-.459-.681-.574-.706c-.322-.933.414-.3,0-1.614-.322,0,0,.832-.276.757a3.487,3.487,0,0,1,0-1.009c.873.757,2.068,3.329,2.642,3.355.276.656,0,.681,0,.933.988,1.135.574-.605,1.493.605a2.148,2.148,0,0,0-.207-.883c.23,0,1.057,1.009.62,0,0,0,.459.858.528.757-.528-1.892,1.333.252,1.057-1.16.827,1.085,1.287.555,1.264,0,1.264,1.917,1.746.631,1.516-.757.414,0,.735.631,1.057.454,0,0,.23,1.135,0,.706.505,1.009.643.706.988.5,0,0-.23-.252-.23-.2.23-.706,2.757,1.766,1.608-1.816-.184.151-.414.126-.758-.252.345.378.23-1.16,1.149.429.23,0,0-.429-.161-.908s-.643-1.261-.689-1.009c-.345-.605.276,0-.276-.858-.322.126-.161.883-.551.933-.161-.605,0-.933.23-1.11-1.378-1.009-1.953-1.009-2.458,0-.6-1.211-.138-1.009-.574-2.018-.23.807-1.378-.631-1.47,0l.23.5c.276.58.322.5.414.5.322.832-.322,0-.689-1.009-.161,0-.46-.328-.574,0,.3.58.414.5.505.4.414,1.211-.6,0-1.1-.429s.414.908.23.858a.769.769,0,0,0-.99-.046.957.957,0,0,0-.32,1.029,3.123,3.123,0,0,1-.758-1.286c-.23,0-.23.252.115.933-.85-1.261-.6,0-.6.605-.184,0-.322-.933-.459-.757s0,.252.23.555-.689-1.085-.781-.631l1.241,2.4c-.138,0-.574-1.135-.85-1.589s.184.832,0,.958c-.505-1.185-1.7-2.875-.919-.883.276,0,0-.4,0-.681a5.228,5.228,0,0,0,.643,1.337c-.6-.605-.3,0-.345.5a13.994,13.994,0,0,1-1.172-2.4,12.253,12.253,0,0,0,0,1.286c.322.681.414.454.528.4a7.28,7.28,0,0,1,.551,1.387c-.161,0-.138-.454-.459-.757,0,.126,0,.5-.23.429.184.58.184.328.528,1.059-.689-.631-1.447-2.522-1.654-2.169-.138-.328-.23-.58,0-.605-1.608-2.018-.85,1.564-2.114,0,.138.656.345.858,0,.378a5.733,5.733,0,0,0,1.447,2.27,6.3,6.3,0,0,0-.551-1.009c-.184-.328,0-1.665.919-.454-.459.151-.23,1.337-.551,1.589a4.585,4.585,0,0,1,.6,1.362c-.3-.2-.62-1.614-.965-1.866.3.757-.643-.3-.368.832a3.08,3.08,0,0,1-.23-.555c-.391-.631.23.883,0,.706a1.881,1.881,0,0,1,0-.605c-.414-.807,0,.3-.23,0s0-.252,0-.3c-.345-.706-.368,0-.689-.681.184.58.391,1.463-.23.429a2.258,2.258,0,0,1-1.355,2.27l.391.807c-.919-.807-1.08,0-1.608,0,1.287,1.841,1.149,0,1.838.151s.758,1.211.85.631Zm-4.595,0c1.264,1.866,1.08-.2,1.838.151-.965-1.412-1.287-.151-1.7-.05Zm-18.2-45.275c.689,1.085.528.3.965.555-.3-.5-.965-1.185-.85-.454Zm27.2,43.988c.322.706.505.832.574.706l-.368-.807ZM26.949,57.34c.459.681.276-.2.459-.2C27.018,56.533,27,57.139,26.949,57.34Zm25.157,51.454a6.989,6.989,0,0,0-.85-1.892C51.188,107.231,51.716,107.988,52.107,108.795Zm0-.353c.161.328.184.2.276.2-.414-.757-.276-.706-.6-1.337-.115.05.23.832.345,1.135ZM29.591,61.956c.322.58.689.757.115-.4-.23-.126.115.353-.092.4Zm0-3.582c0-.177,0-.631.3-.151-.069-.353-1.195-1.513-.345.151ZM58.08,116.387c.459.908.459.3.459,0-.574-.807-.322.076-.505.076ZM28.58,55.852c.528,1.085.368-.126.781.605.115-.151-.643-1.135-.459-1.085-.23-.2-.276.328-.368.5ZM83.7,166.176c.276.5.391.454.689,1.009,0-.151-.368-.858,0-.631-.459-.807-.505-.353-.689-.353Zm.276-.757c.276,0,.735.4.8,0-.6-1.16-.689-.252-.8-.05Zm3.446,6.558c-.138-.656.414,0,.23-.454C87.189,170.515,86.821,171.019,87.419,171.978Zm-2.826-5.9c.345.631.758,1.009.574.378S84.478,165.6,84.593,166.075Zm.689-.681c.391.5.735.832.689.328s-.23,0-.391-.151c-.3-.555,0-.2.138-.378-.62-.757-.345-.076-.46.2Zm2.527.706c.689,1.261.391-.252.781.252C87.97,165.344,88.223,166.378,87.809,166.1Zm-.322-1.16c.322.5.551,0,.459-.252s-.184.252-.574-.757a3.006,3.006,0,0,1,.092.958ZM62.1,113.562a3.3,3.3,0,0,0,1.815,1.085c-.276-.5-.23,0-.689-1.009-.23.328-.781-.177-1.149-.1Zm26.26,52.211c.3.3,1.379,1.261.689-.353C89.234,166.176,88.59,165.672,88.361,165.773Zm-.781-2.27c.345.656.781,1.135.643.681s-.528-.883-.62-.681Zm.781.933c.391.328.574-.126.919-.126-.781-1.312-.391.5-1.149-1.059-.184,0,0,.252,0,.378s.6.883.276.807ZM34.99,55.2c.414.908.345.353.459.429C35.036,54.692,34.83,54.743,34.99,55.2ZM89.67,163.5c.689.3,1.011-.353,2,0,.528,1.135-.391,0-.115.706s.505.252.735.252c-.368-1.009-.735-1.261-1.195-2.371-.689.454-1.424-.05-1.424,1.387ZM63.111,108.416c.689,1.261.827.883,1.08.757C63.5,107.862,63.272,108.114,63.111,108.416Zm1.7,1.766c.689,1.312.781-.353.322.177C65,110.157,64.9,110.106,64.812,110.182Zm27.845,53.472c.459,1.009.414.2.643.353C92.841,163.251,93,163.654,92.657,163.654Zm0-1.009c.368.706.574.832.8.933a8.653,8.653,0,0,1-.6-1.034Zm2.757,2.27c.138.252.643.757.345.151l.322.5c0-.3-.138-.429-.46-1.085-.23-.151.092.5-.161.378Zm.391-.5c.138.252.3.429.276.5.276.58.23,0,.391.126-.23-.5-.551-.908-.643-.706Zm2.481,1.69c.528.908.184-.177.689.353-.459-1.085-.414-.252-.643-.4Zm4.779,8.878a4.636,4.636,0,0,0-.689-2.27,13.135,13.135,0,0,0,.735,2.245Zm-3.814-7.693c.276.378.8.681.6,1.009.643,1.085.391,0,.689,0A2.959,2.959,0,0,0,99.3,167.21ZM39.654,51.262c.345.5.23.5.6,1.009,0-.706,0-.757.322-.832C40.022,50.581,39.976,51.287,39.654,51.262ZM102.6,172.835c.528,1.16,1.034.883.368-.2-.046.353-.528-.429-.345.252Zm-3.148-6.381c.414.807.689.429.551,0s-.161.2-.528.025ZM40.5,51.161c.459,1.009.459.353.391,0s-.528-.5-.368.025ZM101.617,168.7c.391.757.689.807.551.378S101.709,168.472,101.617,168.7Zm2.183,1.513c.23-.353,1.149.605,1.149,0a13.12,13.12,0,0,0-.873-1.513c.161.5-.391.126.23,1.211-.574-.958-.368.076-.528.252Zm0-.3c-.138-.5-.758-1.564-.827-1.261.965,1.513-.322,0,.414,1.463.023-.454.023-.252.368-.328Zm3.216,4.666c.551.681.345.126.391-.2-.6-.757-.368-.2-.459.1ZM42.917,45.688c.23.429.276.429.459.757s0-.555.23-.429c-.505-.908-.827-.908-.689-.429ZM108.05,167.135c.6.832.23-.3.965.807.184-.328,0-.958.6-.3l-.689-1.312c-.023.5-.735.076-.873.807ZM43.721,45.486c0-.5.23,0,.184-.454C43.491,44.2,43.215,44.527,43.721,45.486Zm65.708,121.573c.919,1.211,1.264.858.965-.177.85,1.11,1.539,1.892,1.379.58-.528-.656-.391.5-1.562-1.513-.184.656-.781.429-.689,1.085Zm-1.654-3.43c.414.757.643.454.528,0s-.689-.933-.919-.858a2.432,2.432,0,0,1,.368.858Zm.23-.757c.551.933.184-.177.574,0-.276-.5-.23-.58-.505-1.085a2.153,2.153,0,0,0,0,1.059ZM41.952,38.777c.345.429.459.378.459,0-.6-.908-.161.126-.459-.025Zm70.532,131.158c.322.555.276,0,.459,0-.414-.5-.276-.58-.115-.605-.643-1.009-.138.328-.345.5Zm-1.838-4.036.414.757.276-.151c-.414-.883-.46-.5-.689-.706ZM42.021,38.02c.276.429.459.5.528.4C42.2,37.818,41.814,37.515,42.021,38.02Zm2.3,3.834c.276.5,0-.252,0-.353-.6-1.009-.23-.1-.069.353Zm.919.883c.368.656.414.429.528.378-.505-.832-.758-.858-.6-.378Zm0-1.009s0,.252.138.252c.391.681,0,.3.459,1.11,0-.151.345.429.368.151s-.23-.5-.23-.555c-.459-.681-.459-.3-.8-.958ZM114.69,169.3c-.138-.328,0-.252,0-.353-.23-.5-.62-.757-.551-1.059-.276-.378.23.958.46,1.463.23,0,.505.631.459,0s-.3-.05-.414-.05ZM42.319,35.826c.46.858.873,1.059.23,0C42.319,35.422,42.227,35.472,42.319,35.826Zm2.987,5.448c.459.807.459.631.827,1.261a3.79,3.79,0,0,0-.483-1.085c-.161-.2-.276-.3-.345-.151ZM114.23,166.706a3.761,3.761,0,0,1,.482.757c0-.126-.115-.555-.23-.555a2.666,2.666,0,0,0-.322-.858h0c-.023.1.23.605.161.656Zm.919.832a8.012,8.012,0,0,0-1.034-1.791c.3.58.919,1.866,1.149,1.766ZM44.847,37.843a1.715,1.715,0,0,1,.23.53c.391.5-.23-.58.23,0-.23-.429-.23-.5-.23-.555-.459-.757.276.706-.276.025Zm66.512,120.363c1.1,1.009,1.792,0,2.481.3C112.783,157,112.047,158.13,111.358,158.206Zm1.608,1.513.459.757c.138,0,.276,0,.161-.454s-.459-.4-.6-.328Zm.8.555.414.757c0-.177.184-.252-.23-.908Zm2.527,4.036h0c.827,1.085-.345-.706,0-.631-.23-.353-.23-.151-.368-.151a2.883,2.883,0,0,1,.368.782Zm-2-6.053c.505.883.574.3.873.5C114.437,157.626,114.873,158.584,114.3,158.256ZM43.491,26.544c.276.353.62.631.414,0S43.675,26.645,43.491,26.544Zm75.656,123.162c-.6-2.018-1.516-2.976-1.93-2.27-.184-.4,0-.5,0-.681-.46-.807-.345,0-.689-.605a4.821,4.821,0,0,0,.528,1.059,3.739,3.739,0,0,0-1.4.126c.46,1.009-.23.151.23,1.261-.276-.151-.161-.656-.6-1.009-.23.429.184,1.11-.459.958-.414-.757.528,0-.161-.933,0,.555-.345.429-.781,0a9.53,9.53,0,0,0,.781,1.261c0,.151-.368-.252-.735-.933-.414-.126,0,.656.161,1.261,1.378,1.766,1.149-.757,2.3.378.23-1.009.919-1.16,1.378-1.841.23.5,0,.252,0,.631.459.807.62.3.184-.429a5.087,5.087,0,0,1,1.149,1.841ZM41.423,19.582c.345.555.689.757.528.378S41.538,19.456,41.423,19.582ZM40.5,17.716c.528,1.009.735.883.138,0ZM51.256,36.759c.322.429.781.353,0-1.009a1.322,1.322,0,0,1,.046,1.009ZM42,19.86c.919,1.085.505-.429.919-.151a13.742,13.742,0,0,1-.988-1.488c-.184.151.23,1.211-.23.807.184.429.528,1.059.276.832Zm71.221,125.357c.368.555.345,0,.551,0-.85-1.135-.459-.151-.6.05ZM48.086,29.722a11.265,11.265,0,0,1,.62,1.009c.23,0-.322-.757,0-.631-.505-.605-.551-.378-.689-.328Zm1.447,2.27.459.757c.528.5.184-.353.23-.807-.574-.5-.23.5-.689.076Zm.8.252c.781.58.23-1.085,1.011-.555l-.919-1.513c.3.908.23,1.665-.459.605a6.98,6.98,0,0,0,.459,1.059c-.23-.151-.23-.353-.62-1.009-.092.252.505,1.211.459,1.438Zm62.721,110.1c.689,1.16,0-.2.46,0-.46-.5-.46-.252-.505.05Zm-3.561-7.567c1.218.757,1.677-.5,2.183-.933.276.2.62,1.16.459,1.11.459.706.184-.177.3-.177-.23-.454-.368-.5-.643-1.009s.184-.252.23-.454c-2.068-2.093-1.7.252-2.872.631.161.5.391.858.345.933Zm8.57,14.831c.3.4.391.151.62.328-.276-.454-.23-.58-.551-1.059s.23,1.009-.115.858ZM50.613,30.377c.574,1.009.689.832.919.858-.23-.5-.368-.5-.643-1.009.276.631-.276,0-.276.151ZM117.47,146.2c.368.605.643.933,1.08,1.766.184-.353,0-1.009,0-1.69-.781-1.009-.505.151-1.057-.076Zm4.365,3.683-.23.151c1.287.3,2.6,0,2.8-1.639,0,0,.322.5.391.5a1.38,1.38,0,0,0,0-.681c-.46-.757-.46-.3-.689-.3a2.841,2.841,0,0,1-.391-.782c-.758-.252-1.149.858-2.757,0a3.675,3.675,0,0,0,.345,1.513c-.276-.126-.46-.832-.735-1.261s.345,1.135-.161.429c0,.328.161.429.551,1.059-.46-.252-.85-.429-.919-.151-.551-.832,0-.5,0-.656-.689-.807-.827-.252-.689.378.528,1.009,1.218,1.513.965,1.816.758.757.322-1.312,1.08-.252,0,.832-1.241.353-.551,2.018,1.218.757.8-.958,1.608-.933Zm-7.122-8.929c.414.706.827,1.185.689.656S114.942,140.954,114.713,140.954Zm1.378,1.261a5.285,5.285,0,0,1-.345-.479c.62-.378.919,0,1.7,0-1.333-2.775-2.114-1.463-2.573-1.589.161.832.735,1.967,1.218,2.093ZM118.618,146c.391.58.574.58.919,1.16-.368-.807.414-.252-.138-1.261.23.757-.873-.681-.8.126Zm-4.457-12.107c-.138-.252,0-.252,0-.3s-.184,0-.46-.429.23-.252.276-.5c-.873-1.085-1.149-.429-1.746-1.009a8.13,8.13,0,0,0,.873,1.539c.459.883,0,0,.115.631-.345-.252-.161-.631-.643-1.337-.391.2-.276.58-.919-.151,0,.5.23.429-.138.429.988,1.766.528.2,1.034.757.459,1.185-1.195-.58-.23,1.16.459-.631,2.3.757,1.907-1.463-.46-.555.184.656-.092.605Zm4.227,10.089c-.138.177.689.883.528,1.059.505.757,0-.252,0-.378-.23-.605-.23-.2-.528-.681Zm.781.908c.735.4,1.333-.5.414-1.614C119.951,144.535,118.963,143.476,119.17,144.888Zm-10.959-20.935c0,.151.322.429.23.555.781,1.085.46-.2.574-.328-.827-1.312-.23.5-.827-.252Zm.46-.252h.23c-.161-.2-.322-.429-.3-.5s-.184,0-.459-.429a4.257,4.257,0,0,0,.505.933ZM120.3,144.258c.689.5.965-.605,1.838-.353-1.47-1.816-1.149,0-1.93-.252.459.757.161.5.115.605ZM109.038,121.1c-.184-.5.62.177,0-1.009.23.177.551.58.62.353a5.575,5.575,0,0,0-.689-1.312c-.161,0,.368.757.3.832s-.505-.631-.459-.757c-.689-.2-1.011-.126-1.1.631.23.177.85.958.62.328.919,1.589.184.807-.184.454.161.3.414,1.11.505,1.059.459.807.23,0,.689.3s-.62.151-.46.605c-.322-.631-.689-1.362-.827-1.261,1.057,1.766,1.011,2.27.85,2.522a7.336,7.336,0,0,1,.643,1.009c0-1.185,2.068,0,2.3-1.009-.23-.5-.368-.5-.62-1.009.23,0,.689.883.919.858l-.6-1.009s.276.252.322.151.184.429.459.757h.23a1.5,1.5,0,0,1-.253-.555c-.391-.5-.919-1.261-1.034-1.11,0-.252-.3-.58-.551-1.009.184.555-.528-.328-.23.454a5.021,5.021,0,0,1-.689-.984c-.138.5-.23.706-.781.757Zm14.474,24.718a6.672,6.672,0,0,0-.827-1.211c0,.454-.23.3-.459.605-.46-1.387-1.08-.5-.689.378,1.08.807.919-.883,1.93.252Zm.414,1.135c.368.605.3,0,.23-.126C123.6,145.948,123.833,146.629,123.925,146.957Zm-1.057-2.522c.528.958.735,1.085.827.883-.391-.706-.391-.454-.689-1.009,0-.933.689-.353-.23-2.27,0,.58-.551,0-1.1-.4,0,.3.322.757.276.883.414.555.345.328.368,0,.528,1.185.689,1.766.528,1.942Zm1.539-.5c.368.555.391,0,0-.631-.161-.177-.23-.252-.322-.177a3.845,3.845,0,0,1,.322.883ZM48.913,9.241c.758,1.009.184-.4.391-.555-.368-.757-.23.378-.574-.353C48.5,8.358,49.235,9.342,48.913,9.241Zm3.676,1.967c.574.151.391-1.059,1.378,0,.23,0-.551-1.261-.184-1.261-.23-.5-.689-.757-.574-1.009a1.282,1.282,0,0,0-1.333-.252A3.953,3.953,0,0,0,52.589,10a2.984,2.984,0,0,0,0,1.236ZM123.81,136.262c.322.58.23,0,.368.151-.46-.706-.551-.5-.391-.151Zm2.849,4.792c.345.555.23,0,.414,0C126.223,139.793,126.912,141.206,126.659,141.055Zm-.23-3.783c.138.5.6.908.6.706C126.246,136.716,126.567,137.675,126.43,137.271ZM66.236,21.751c.414.252.689,0,1.1,1.085.689,0-.8-3.329-1.769-4.086a4.588,4.588,0,0,0,.666,3Zm47.925,86.892c.414.832.528.757.62.681l-.505-1.059C114.161,108.265,114.046,108.265,114.161,108.643ZM75.1,19.986c.551,1.337.85.958,1.241,1.387a18.386,18.386,0,0,0,1.976,3.985c.345,0,0-.706.161-1.085a22.916,22.916,0,0,0-2.16-4.237c-.345-.151-.551.454-1.057-.757.023.328-.184.4-.161.757Zm25.571,52.968c.3.58.391,0,.322-.151s-.345-.454-.46-.429c.23.454.184.58.138.58ZM78.183,22.407c.161,0,0-.4.184-.429-.276-.757-.459-.631-.689-1.312a4.589,4.589,0,0,0,.505,1.74Zm41.01,88.153c.459,1.009.551.555,0-.353s-.023.076,0,.3Zm-.528-4.918h0c-.391-.908-.46-1.362-.689-1.337a12.257,12.257,0,0,0,.666,1.337Z" transform="translate(132.62 181.335) rotate(180)" fill="#00c67c" fill-rule="evenodd" />
</svg>
